<svg id="Calque_1" data-name="Calque 1" xmlns="http://www.w3.org/2000/svg" viewBox="0 0 420 60"><defs><style>.cls-1{fill:#014e37;}</style></defs><title>Plan de travail 1</title><path class="cls-1" d="M35,57.87s17.23-7.29,17.23-23.94c0-13.54-15.88-30.06-17-31.71C35,2,34.7,2,34.7,2.23c0,24.6.26,51-.19,55.57,0,.15.16.22.48.08"/><path class="cls-1" d="M33,57.62C33,43.85,25.6,41.9,18.61,39.85S7.45,36.35,5.68,32.28c-.06-.13-.27-.17-.29,0,.3,24.65,23.38,24.9,27.35,25.57.21,0,.23,0,.23-.23"/><path class="cls-1" d="M42,57.79c5.51-1.11,23.22-5.19,23.22-22.9,0-6.9-2.41-16.08-4-27,0-.23-.19-.18-.31,0-4.2,5.94-5.42,7.6-7.82,12.69,2.44,4.94,3.67,9.4,3.67,13.32,0,16.47-13.54,22.71-15.26,23.64-.7.34.09.31.56.22"/><path class="cls-1" d="M295,37.76l13.59,0-6.86-18.58ZM322.6,50.7c2.08,4.81,4.47,5,4.47,5v.91H310.4v-.79s4.22-.66,2.55-6.61l-2.69-7.08H293.45L290,51.28c-1.26,3.68,1.8,4.38,1.8,4.38v1h-11.2v-.91s1.92.18,4.21-4.52l15.78-41.13H307Z"/><path class="cls-1" d="M110.67,10.1V23h-.83C108.46,17.39,105.57,14,98.35,14H95V48.36c0,4.54,1,6.4,2.82,7.36v.76H84.1v-.76c1.86-1,2.82-2.82,2.82-7.36V14h-3.1c-7.3,0-10.12,3.42-11.49,9.07h-.89V10.1Z"/><path class="cls-1" d="M414.61,10.1V23h-.83c-1.38-5.64-4.27-9.07-11.49-9.07h-3.37V48.36c0,4.54,1,6.4,2.82,7.36v.76H388v-.76c1.86-1,2.82-2.82,2.82-7.36V14h-3.1c-7.29,0-10.12,3.42-11.49,9.07h-.89V10.1Z"/><path class="cls-1" d="M163.66,40.41V18.22c0-4.61-1-6.47-2.89-7.36V10.1h13.76v.76c-1.79,1-2.89,2.82-2.89,7.36v21.5c0,9.5,3,14.29,11.32,14.29,5.83,0,11-4.86,10.91-14.08V21.46c-.07-6.88-1.78-9.36-4.26-10.6V10.1H203v.76c-2.48,1.17-4,3.58-4.16,10.39V39.93c-.35,10.45-5.43,17.18-17.1,17.18s-18.1-4.72-18.1-16.7"/><path class="cls-1" d="M331.75,40.41V18.22c0-4.61-1-6.47-2.89-7.36V10.1h13.76v.76c-1.79,1-2.89,2.82-2.89,7.36v21.5c0,9.5,3,14.29,11.32,14.29,5.83,0,11-4.86,10.9-14.08V21.46c-.07-6.88-1.78-9.36-4.26-10.6V10.1h13.42v.76c-2.48,1.17-4,3.58-4.16,10.39V39.93c-.35,10.45-5.43,17.18-17.1,17.18s-18.1-4.72-18.1-16.7"/><path class="cls-1" d="M242.39,20.7h-.83c-2.2-5.58-3.4-6.73-13.08-6.73h-7.37V31.73h5.44c4.48-.34,6.54-1.39,8-5.45h.75V41.14h-.75c-1.52-4-3.65-4.65-8.05-4.92h-5.37V48.36c0,4.68,1.17,6.47,3.44,7.36v.76H210.25v-.76c1.79-.89,2.82-2.75,2.82-7.36V18.22c0-4.61-1-6.47-2.82-7.36V10.1h32.14Z"/><path class="cls-1" d="M281.89,20.7h-.83C278.86,15.12,277.66,14,268,14h-7.36V31.73h5.44c4.47-.34,6.54-1.39,8-5.45h.75V41.14H274c-1.52-4-3.65-4.65-8.05-4.92h-5.37V48.36c0,4.68,1.17,6.47,3.44,7.36v.76H249.75v-.76c1.79-.89,2.82-2.75,2.82-7.36V18.22c0-4.61-1-6.47-2.82-7.36V10.1h32.14Z"/><path class="cls-1" d="M152.47,57.78a28.6,28.6,0,0,0,8.31-1.39v-1c-7.81-.82-16.55-12.92-21.32-19.68,6.6-1,12.16-5.41,12.16-12.84,0-7.85-5.92-12.73-18.37-12.73H117.41v.75c1.79.9,2.82,2.75,2.82,7.37V48.37c0,4.54-1,6.4-2.82,7.36v.76h13.7v-.76c-1.72-.89-2.82-2.75-2.82-7.36V14H131c7.91,0,11.7,3.33,11.7,10.08,0,5.22-3.92,9.79-12.53,10.76v.69c3,4.27,5.71,8.26,8.6,11.77,5.78,7.43,9,10.52,13.66,10.52Z"/></svg>